<?xml version="1.0" encoding="UTF-8" standalone="no"?>
<!-- Created with Inkscape (http://www.inkscape.org/) -->

<svg
   xmlns:dc="http://purl.org/dc/elements/1.1/"
   xmlns:cc="http://creativecommons.org/ns#"
   xmlns:rdf="http://www.w3.org/1999/02/22-rdf-syntax-ns#"
   xmlns:svg="http://www.w3.org/2000/svg"
   xmlns="http://www.w3.org/2000/svg"
   xmlns:sodipodi="http://sodipodi.sourceforge.net/DTD/sodipodi-0.dtd"
   xmlns:inkscape="http://www.inkscape.org/namespaces/inkscape"
   width="910"
   height="910"
   viewBox="0 0 909.99999 910"
   id="svg2"
   version="1.1"
   inkscape:version="0.91 r13725"
   sodipodi:docname="fooder.svg">
  <defs
     id="defs4">
    <inkscape:path-effect
       effect="spiro"
       id="path-effect4164"
       is_visible="true" />
  </defs>
  <sodipodi:namedview
     id="namedview4285"
     pagecolor="#ffffff"
     bordercolor="#666666"
     borderopacity="1.0"
     inkscape:pageopacity="0.0"
     inkscape:pageshadow="2"
     inkscape:zoom="0.49497474"
     inkscape:cx="324.16601"
     inkscape:cy="497.56226"
     inkscape:document-units="px"
     inkscape:current-layer="root"
     showgrid="false"
     units="px"
     inkscape:window-width="1600"
     inkscape:window-height="847"
     inkscape:window-x="0"
     inkscape:window-y="0"
     inkscape:window-maximized="1" />
  <metadata
     id="fooder_logo"
     author="ROUSSEAU Alexandre"
     email="rousseaualexandre.lyon@gmail.com">
    <rdf:RDF>
      <cc:Work
         rdf:about="">
        <dc:format>image/svg+xml</dc:format>
        <dc:type
           rdf:resource="http://purl.org/dc/dcmitype/StillImage" />
        <dc:title></dc:title>
      </cc:Work>
    </rdf:RDF>
  </metadata>
  <g
     inkscape:label="Calque 1"
     inkscape:groupmode="layer"
     id="root"
     transform="translate(0,-142.36216)">
    <path
       style="fill:#e3dedb;fill-rule:evenodd;stroke:none;stroke-width:1px;stroke-linecap:butt;stroke-linejoin:miter;stroke-opacity:1"
       d="m 139.38074,721.09304 c 28.81461,-106.04406 13.83198,-114.52075 -6.06091,-171.72594 0,0 -8.90482,-74.52719 14.14214,-147.48228 -4.04061,-82.8325 -32.83131,-129.33377 36.3655,-208.09142 88.81592,-7.08763 155.77754,2.64014 244.45691,26.26397 80.92041,-15.2216 181.26358,-33.06657 288.90365,-20.20305 67.08703,9.09467 74.27732,98.18293 40.4061,177.78685 -13.10607,107.77623 16.7901,225.77709 22.22335,329.30972 -13.84696,76.70897 -6.77629,224.79594 -38.3858,268.7006 -56.41335,61.87331 -159.06266,8.5891 -212.13203,-6.0609 -72.83736,2.571 -189.11229,3.6871 -311.127,38.38581 C 121.03434,980.14139 124.13412,946.38959 90.893422,848.37226 145.29893,783.64872 123.69945,823.73988 139.38074,721.09304 Z"
       id="path4160"
       inkscape:connector-curvature="0"
       sodipodi:nodetypes="ccccccccccccc" />
    <rect
       style="opacity:1;fill:#e3dbdb;fill-opacity:1;stroke:none;stroke-width:5;stroke-miterlimit:4;stroke-dasharray:none;stroke-opacity:1"
       id="rect4168"
       width="570"
       height="727.77667"
       x="170.53299"
       y="242.11346"
       rx="2.239305"
       ry="9.4636736" />
    <rect
       style="opacity:1;fill:#c8b7b7;fill-opacity:1;stroke:none;stroke-width:5;stroke-miterlimit:4;stroke-dasharray:none;stroke-opacity:1"
       id="rect4168-3"
       width="570"
       height="70"
       x="170.53299"
       y="242.11346"
       rx="2.239305"
       ry="0.91024786" />
    <circle
       style="opacity:1;fill:#800000;fill-opacity:1;stroke:none;stroke-width:5;stroke-miterlimit:4;stroke-dasharray:none;stroke-opacity:1"
       id="path4185"
       cx="210.53299"
       cy="277.11346"
       r="20" />
    <circle
       style="opacity:1;fill:#f2f2f2;fill-opacity:1;stroke:none;stroke-width:5;stroke-miterlimit:4;stroke-dasharray:none;stroke-opacity:1"
       id="path4185-8"
       cx="270.53299"
       cy="277.11346"
       r="20" />
    <circle
       style="opacity:1;fill:#f2f2f2;fill-opacity:1;stroke:none;stroke-width:5;stroke-miterlimit:4;stroke-dasharray:none;stroke-opacity:1"
       id="path4185-8-8"
       cx="330.53299"
       cy="277.11346"
       r="20" />
    <rect
       style="opacity:1;fill:#f2f2f2;fill-opacity:1;stroke:none;stroke-width:5;stroke-miterlimit:4;stroke-dasharray:none;stroke-opacity:1"
       id="rect4168-3-3"
       width="530"
       height="257.88837"
       x="190.53299"
       y="334.22507"
       rx="2.0821607"
       ry="3.353462" />
    <rect
       style="opacity:1;fill:#f2f2f2;fill-opacity:1;stroke:none;stroke-width:5;stroke-miterlimit:4;stroke-dasharray:none;stroke-opacity:1"
       id="rect4168-3-3-7"
       width="250"
       height="325.76654"
       x="190.53299"
       y="615.34692"
       rx="0.98215127"
       ry="4.2361188" />
    <rect
       style="opacity:1;fill:#f2f2f2;fill-opacity:1;stroke:none;stroke-width:5;stroke-miterlimit:4;stroke-dasharray:none;stroke-opacity:1"
       id="rect4168-3-3-7-7"
       width="250"
       height="150"
       x="470.53299"
       y="616.11346"
       rx="0.98215127"
       ry="1.9505311" />
    <g
       id="rolling-pin"
       transform="matrix(0.5,0.8660254,-0.8660254,0.5,685.93326,-48.242791)">
      <g
         id="g4311">
        <rect
           style="opacity:1;fill:#552200;fill-opacity:1;stroke:#552200;stroke-width:5;stroke-linejoin:round;stroke-miterlimit:4;stroke-dasharray:none;stroke-opacity:1"
           id="rect4147-5"
           width="70"
           height="1000"
           x="465"
           y="52.36216"
           rx="1.5834258"
           ry="12.314592" />
        <rect
           style="opacity:1;fill:#803300;fill-opacity:1;stroke:#803300;stroke-width:30;stroke-linecap:round;stroke-linejoin:round;stroke-miterlimit:4;stroke-dasharray:none;stroke-opacity:1"
           id="rect4147"
           width="100"
           height="800"
           x="450"
           y="152.36217"
           rx="2.2620368"
           ry="9.8516741" />
        <rect
           style="opacity:1;fill:#aa4400;fill-opacity:1;stroke:#aa4400;stroke-width:5;stroke-linecap:round;stroke-linejoin:round;stroke-miterlimit:4;stroke-dasharray:none;stroke-opacity:1"
           id="rect4335"
           width="765.69562"
           height="26.263966"
           x="-938.51251"
           y="448.19247"
           transform="matrix(0,-1,1,0,0,0)"
           rx="2.2620399"
           ry="9.8516703" />
      </g>
    </g>
    <g
       id="g4301"
       transform="matrix(0.40816327,0,0,0.40816327,349.04319,363.61084)">
      <g
         id="Guides_For_Artboard" />
      <text
         style="font-style:normal;font-weight:normal;font-size:70px;line-height:125%;font-family:sans-serif;letter-spacing:0px;word-spacing:0px;fill:#aa4400;fill-opacity:1;stroke:none;stroke-width:1px;stroke-linecap:butt;stroke-linejoin:miter;stroke-opacity:1"
         x="-812.65558"
         y="876.47156"
         id="text4234"
         sodipodi:linespacing="125%"
         transform="matrix(0.8660254,-0.5,0.5,0.8660254,0,0)"
         xml:space="default">
        <tspan
           sodipodi:role="line"
           id="tspan4236"
           x="-812.65558"
           y="876.47156"
           style="font-style:normal;font-variant:normal;font-weight:bold;font-stretch:normal;font-size:171.5px;font-family:sans-serif;-inkscape-font-specification:'sans-serif Bold';letter-spacing:113.93508148px;fill:#aa4400;fill-opacity:1">FOODER</tspan>
      </text>
      <g
         id="Artwork" />
      <g
         id="Layer_3">
        <g
           id="g4285">
          <circle
             id="circle4287"
             r="245"
             cy="255.99699"
             cx="256"
             style="fill:#008080;fill-opacity:1" />
          <g
             id="g4289">
            <path
               id="path4291"
               d="m 254.758,334.635 c -31.555,0 -60.685,-6.391 -84.23,-17.179 l 0,88.287 c 0,0.995 0.424,1.943 1.165,2.607 0.646,0.577 1.478,0.893 2.335,0.893 0.128,0 0.257,-0.007 0.386,-0.021 0.011,-10e-4 162.879,-0.035 163.141,-0.004 0.994,0.123 1.992,-0.192 2.74,-0.856 0.749,-0.664 1.179,-1.617 1.179,-2.618 l 0,-88.553 c -0.91,0.146 -1.821,0.285 -2.742,0.396 -23.502,10.713 -52.541,17.048 -83.974,17.048 z"
               style="fill:#e9e9eb"
               inkscape:connector-curvature="0" />
            <path
               id="path4293"
               d="M 341.044,169.298 C 331.615,131.089 297.125,102.75 256,102.75 c -41.339,0 -75.97,28.638 -85.184,67.154 -0.4,1.673 -0.744,5.079 -5.37,5.948 -31.835,7.486 -55.542,36.053 -55.542,70.173 0,34.871 24.759,63.94 57.652,70.637 0.684,0.139 2.671,0.657 2.971,0.794 23.546,10.788 52.676,17.179 84.23,17.179 30.409,0 58.577,-5.929 81.657,-16.014 0.778,-0.34 4.148,-1.285 5.058,-1.43 34.36,-5.504 60.623,-35.253 60.623,-71.166 0,-34.003 -23.544,-62.492 -55.217,-70.097 -2.665,-0.893 -4.327,-0.946 -5.834,-6.63 z"
               style="fill:#f8f8f8"
               inkscape:connector-curvature="0" />
          </g>
        </g>
      </g>
    </g>
    <rect
       style="opacity:1;fill:#f2f2f2;fill-opacity:1;stroke:none;stroke-width:5;stroke-miterlimit:4;stroke-dasharray:none;stroke-opacity:1"
       id="rect4168-3-3-7-7-4"
       width="250"
       height="150"
       x="470.53299"
       y="791.11346"
       rx="0.98215127"
       ry="1.9505311" />
  </g>
</svg>
