<?xml version="1.0" encoding="UTF-8" standalone="no"?>
<!-- Created with Inkscape (http://www.inkscape.org/) -->

<svg
   xmlns:dc="http://purl.org/dc/elements/1.1/"
   xmlns:cc="http://creativecommons.org/ns#"
   xmlns:rdf="http://www.w3.org/1999/02/22-rdf-syntax-ns#"
   xmlns:svg="http://www.w3.org/2000/svg"
   xmlns="http://www.w3.org/2000/svg"
   xmlns:sodipodi="http://sodipodi.sourceforge.net/DTD/sodipodi-0.dtd"
   xmlns:inkscape="http://www.inkscape.org/namespaces/inkscape"
   width="1000"
   height="1000"
   viewBox="0 0 999.99999 1000"
   id="svg2"
   version="1.1"
   inkscape:version="0.91 r13725"
   sodipodi:docname="fooder.svg">
  <defs
     id="defs4" />
  <sodipodi:namedview
     id="namedview4285"
     pagecolor="#ffffff"
     bordercolor="#666666"
     borderopacity="1.0"
     inkscape:pageopacity="0.0"
     inkscape:pageshadow="2"
     inkscape:zoom="0.49497474"
     inkscape:cx="86.792924"
     inkscape:cy="563.53933"
     inkscape:document-units="px"
     inkscape:current-layer="root"
     showgrid="false"
     units="px"
     inkscape:window-width="1600"
     inkscape:window-height="847"
     inkscape:window-x="0"
     inkscape:window-y="0"
     inkscape:window-maximized="1" />
  <metadata
     id="fooder_logo"
     author="ROUSSEAU Alexandre"
     email="rousseaualexandre.lyon@gmail.com">
    <rdf:RDF>
      <cc:Work
         rdf:about="">
        <dc:format>image/svg+xml</dc:format>
        <dc:type
           rdf:resource="http://purl.org/dc/dcmitype/StillImage" />
      </cc:Work>
    </rdf:RDF>
  </metadata>
  <g
     inkscape:label="Calque 1"
     inkscape:groupmode="layer"
     id="root"
     transform="translate(0,-52.362161)">
    <g
       id="computer">
      <path
         id="path5424-9-0-2-0"
         d="m 243.91268,978.88168 562.55812,0 c 33.31575,0 60.39625,-27.09732 60.39625,-60.40971 l 0,-381.75274 c 0,-33.31575 -27.08219,-60.41139 -60.39625,-60.41139 l -562.55812,0 c -33.31407,0 -60.39793,27.09396 -60.39793,60.41139 l 0,381.75274 c 0,33.31405 27.08386,60.40971 60.39793,60.40971 z m -4.42876,-442.16245 c 0,-2.44734 1.99673,-4.44221 4.42876,-4.44221 l 562.55812,0 c 2.43388,0 4.42707,1.99487 4.42707,4.44221 l 0,381.75274 c 0,2.44567 -1.99319,4.44053 -4.42707,4.44053 l -562.55812,0 c -2.43203,0 -4.42876,-1.99486 -4.42876,-4.44053 l 0,-381.75274 z"
         style="fill:#2c3e50;fill-opacity:1"
         inkscape:connector-curvature="0" />
      <path
         id="path5428-3-8-8-8"
         d="m 295.23461,599.87401 215.13022,0 c 7.73543,0 13.99086,-6.25711 13.99086,-13.99272 0,-7.7356 -6.25694,-13.99271 -13.99086,-13.99271 l -215.13022,0 c -7.73577,0 -13.99288,6.25711 -13.99288,13.99271 0,7.73561 6.25896,13.99272 13.99288,13.99272 z"
         style="fill:#7f8c8d;fill-opacity:1"
         inkscape:connector-curvature="0" />
      <path
         id="path5430-6-5-4-1"
         d="m 295.23461,655.84319 215.13022,0 c 7.73543,0 13.99086,-6.25711 13.99086,-13.99272 0,-7.7356 -6.25694,-13.99271 -13.99086,-13.99271 l -215.13022,0 c -7.73577,0 -13.99288,6.25711 -13.99288,13.99271 0,7.73561 6.25896,13.99272 13.99288,13.99272 z"
         style="fill:#7f8c8d;fill-opacity:1"
         inkscape:connector-curvature="0" />
      <path
         id="path5432-8-0-7-3"
         d="m 295.23461,711.81238 215.13022,0 c 7.73543,0 13.99086,-6.25711 13.99086,-13.99273 0,-7.73559 -6.25694,-13.9927 -13.99086,-13.9927 l -215.13022,0 c -7.73577,0 -13.99288,6.25711 -13.99288,13.9927 0,7.73562 6.25896,13.99273 13.99288,13.99273 z"
         style="fill:#7f8c8d;fill-opacity:1"
         inkscape:connector-curvature="0" />
      <path
         id="path5434-0-6-2-1"
         d="m 755.14904,743.47134 -286.759,0 c -7.73577,0 -13.99288,6.26046 -13.99288,13.9927 0,7.73562 6.25879,13.99273 13.99288,13.99273 l 286.759,0 c 7.73224,0 13.99271,-6.25711 13.99271,-13.99273 0,-7.73224 -6.26047,-13.9927 -13.99271,-13.9927 z"
         style="fill:#7f8c8d;fill-opacity:1"
         inkscape:connector-curvature="0" />
      <path
         id="path5436-2-4-4-1"
         d="m 755.14904,799.44051 -286.759,0 c -7.73577,0 -13.99288,6.26049 -13.99288,13.99271 0,7.73562 6.25879,13.99273 13.99288,13.99273 l 286.759,0 c 7.73224,0 13.99271,-6.25711 13.99271,-13.99273 0,-7.73222 -6.26047,-13.99271 -13.99271,-13.99271 z"
         style="fill:#7f8c8d;fill-opacity:1"
         inkscape:connector-curvature="0" />
      <path
         id="path5438-1-6-0-0"
         d="m 755.14904,855.40968 -286.759,0 c -7.73577,0 -13.99288,6.26051 -13.99288,13.99275 0,7.73557 6.25879,13.99269 13.99288,13.99269 l 286.759,0 c 7.73224,0 13.99271,-6.25712 13.99271,-13.99269 0,-7.73224 -6.26047,-13.99275 -13.99271,-13.99275 z"
         style="fill:#7f8c8d;fill-opacity:1"
         inkscape:connector-curvature="0" />
      <path
         id="path5440-0-2-6-3"
         d="m 568.30197,711.81238 183.04739,0 c 7.73392,0 13.99103,-6.25711 13.99103,-13.99273 l 0,-111.93836 c 0,-7.7356 -6.25879,-13.99271 -13.99103,-13.99271 l -183.04739,0 c -7.73561,0 -13.99104,6.25711 -13.99104,13.99271 l 0,111.93836 c 0,7.73562 6.25543,13.99273 13.99104,13.99273 z m 13.99103,-111.93837 155.06196,0 0,83.95294 -155.06196,0 0,-83.95294 z"
         style="fill:#c0392b;fill-opacity:1"
         inkscape:connector-curvature="0" />
      <path
         id="path5442-5-5-2-4"
         d="m 295.23461,883.39512 107.56343,0 c 7.73543,0 13.99254,-6.25712 13.99254,-13.99269 l 0,-111.93839 c 0,-7.73224 -6.25879,-13.9927 -13.99254,-13.9927 l -107.56343,0 c -7.73577,0 -13.99288,6.26046 -13.99288,13.9927 l 0,111.93839 c 0,7.73391 6.25896,13.99269 13.99288,13.99269 z"
         style="fill:#3498db;fill-opacity:1"
         inkscape:connector-curvature="0" />
    </g>
    <path
       id="base"
       d="m 965.3395,1017.1931 0,14.0676 c 0,11.6566 -13.28156,21.1015 -29.673,21.1015 l -820.95121,0 c -16.391438,0 -29.672996,-9.4449 -29.672996,-21.1015 l 0,-14.0676 c 0,-11.6565 13.281558,-21.10152 29.672996,-21.10152 l 820.95121,0 c 16.39144,0 29.673,9.44782 29.673,21.10152 z"
       inkscape:connector-curvature="0"
       sodipodi:nodetypes="sssssssss"
       style="fill:#f1c40f;fill-opacity:1" />
    <g
       id="bell"
       onmouseover="setAttribute('transform', 'rotate(-10) translate(-100, 100) ');"
       onmouseout="setAttribute('transform', '');"
       >
      <path
         style="fill:#f1c40f;fill-opacity:1"
         sodipodi:nodetypes="sssscssscs"
         inkscape:connector-curvature="0"
         d="m 822.78672,330.34636 c 6.92722,14.8555 0.50309,32.50574 -14.3525,39.4331 L 112.80671,694.15586 C 97.951116,701.08312 80.300851,694.65892 73.373624,679.80341 -13.993969,492.44292 51.639922,272.30498 218.69938,161.06099 c -4.13558,-4.63714 -7.69052,-9.92046 -10.44769,-15.83324 -15.21218,-32.62279 -1.04739,-71.540722 31.57553,-86.752952 32.62276,-15.21228 71.54064,-1.047258 86.75282,31.575463 2.75717,5.912885 4.51942,12.032189 5.41341,18.180809 192.59974,-56.472304 403.42567,34.75473 490.79327,222.11529 z"
         id="bell_yellow" />
      <path
         inkscape:connector-curvature="0"
         id="light"
         d="m 144.96946,598.67698 c -12.85079,-6.39726 -22.36019,-34.10889 -28.71873,-83.69009 -10.6714,-83.21116 14.88207,-162.29356 77.65477,-240.32454 45.2829,-56.28991 68.78573,-69.50293 87.74037,-49.32665 14.4061,15.33459 11.11941,24.69952 -20.55542,58.56949 -81.659,87.31817 -107.55069,171.96877 -81.80353,267.44937 7.59202,28.1542 7.55278,29.73632 -0.98243,39.60736 -9.57092,11.06883 -21.19415,13.75892 -33.33503,7.71506 z"
         style="opacity:1;fill:#ffffff;fill-opacity:1;stroke:none;stroke-width:4.04061031;stroke-miterlimit:4;stroke-dasharray:none;stroke-opacity:1" />
    </g>
  </g>
</svg>
